<svg width="170" height="18" viewBox="0 0 170 18" fill="none" xmlns="http://www.w3.org/2000/svg">
<path d="M2.91593 7.59999C2.94793 8.06399 3.04393 8.49599 3.20393 8.89599C3.36393 9.29599 3.57993 9.64799 3.85193 9.95199C4.12393 10.24 4.45993 10.472 4.85993 10.648C5.27593 10.824 5.75593 10.912 6.29993 10.912C6.87593 10.912 7.40393 10.808 7.88393 10.6C8.37993 10.392 8.73993 10.032 8.96393 9.51999H11.7719C11.6119 10.16 11.3479 10.712 10.9799 11.176C10.6279 11.64 10.2039 12.024 9.70793 12.328C9.22793 12.616 8.69193 12.832 8.09993 12.976C7.52393 13.104 6.90793 13.168 6.25193 13.168C5.24393 13.168 4.35593 13.016 3.58793 12.712C2.83593 12.408 2.20393 11.968 1.69193 11.392C1.17993 10.816 0.795932 10.136 0.539932 9.35199C0.299932 8.55199 0.179932 7.65599 0.179932 6.66399C0.179932 5.70399 0.315932 4.83199 0.587932 4.04799C0.859932 3.24799 1.25193 2.55999 1.76393 1.98399C2.29193 1.40799 2.92393 0.959986 3.65993 0.639986C4.39593 0.303986 5.23593 0.135986 6.17993 0.135986C7.17193 0.135986 8.02793 0.303986 8.74793 0.639986C9.46793 0.959986 10.0679 1.39999 10.5479 1.95999C11.0439 2.51999 11.4119 3.17599 11.6519 3.92799C11.8919 4.67999 12.0119 5.49599 12.0119 6.37599C12.0119 6.79199 11.9879 7.19999 11.9399 7.59999H2.91593ZM9.34793 5.53599C9.29993 4.54399 8.98793 3.79199 8.41193 3.27999C7.85193 2.76799 7.11593 2.51199 6.20393 2.51199C5.69193 2.51199 5.24393 2.59199 4.85993 2.75199C4.47593 2.91199 4.14793 3.12799 3.87593 3.39999C3.61993 3.67199 3.41193 3.99199 3.25193 4.35999C3.09193 4.72799 2.98793 5.11999 2.93993 5.53599H9.34793Z" fill="white"/>
<path d="M14.4881 13V0.351986H23.6321V2.72799H17.2241V13H14.4881Z" fill="white"/>
<path d="M31.0042 0.135986C32.0122 0.135986 32.9002 0.295986 33.6682 0.615986C34.4362 0.935986 35.0842 1.38399 35.6122 1.95999C36.1562 2.51999 36.5642 3.19999 36.8362 3.99999C37.1082 4.79999 37.2442 5.68799 37.2442 6.66399C37.2442 7.65599 37.1082 8.55199 36.8362 9.35199C36.5802 10.136 36.1882 10.816 35.6602 11.392C35.1322 11.968 34.4762 12.408 33.6922 12.712C32.9242 13.016 32.0282 13.168 31.0042 13.168C29.9962 13.168 29.1082 13.016 28.3402 12.712C27.5722 12.392 26.9242 11.952 26.3962 11.392C25.8842 10.816 25.4922 10.128 25.2202 9.32799C24.9642 8.52799 24.8362 7.63999 24.8362 6.66399C24.8362 5.68799 24.9642 4.79999 25.2202 3.99999C25.4922 3.19999 25.8922 2.51999 26.4202 1.95999C26.9482 1.38399 27.5962 0.935986 28.3642 0.615986C29.1322 0.295986 30.0122 0.135986 31.0042 0.135986ZM31.0042 10.792C31.6282 10.792 32.1562 10.688 32.5882 10.48C33.0362 10.256 33.3962 9.95999 33.6682 9.59199C33.9562 9.22399 34.1642 8.79199 34.2922 8.29599C34.4362 7.79999 34.5082 7.26399 34.5082 6.68799C34.5082 6.11199 34.4362 5.57599 34.2922 5.07999C34.1642 4.56799 33.9562 4.12799 33.6682 3.75999C33.3962 3.39199 33.0362 3.10399 32.5882 2.89599C32.1562 2.68799 31.6282 2.58399 31.0042 2.58399C30.4282 2.58399 29.9082 2.68799 29.4442 2.89599C28.9962 3.10399 28.6282 3.39199 28.3402 3.75999C28.0682 4.12799 27.8602 4.56799 27.7162 5.07999C27.5882 5.57599 27.5242 6.11199 27.5242 6.68799C27.5242 7.26399 27.5882 7.79999 27.7162 8.29599C27.8602 8.79199 28.0682 9.22399 28.3402 9.59199C28.6282 9.95999 28.9882 10.256 29.4202 10.48C29.8682 10.688 30.3962 10.792 31.0042 10.792Z" fill="white"/>
<path d="M42.4662 17.92H39.7302V0.351986H42.3222L42.4662 2.15199C42.9302 1.49599 43.5302 0.999986 44.2662 0.663987C45.0182 0.311986 45.8022 0.135986 46.6182 0.135986C47.4822 0.135986 48.2582 0.295986 48.9462 0.615986C49.6342 0.919986 50.2182 1.35199 50.6982 1.91199C51.1942 2.47199 51.5622 3.15199 51.8022 3.95199C52.0582 4.73599 52.1862 5.63199 52.1862 6.63999C52.1862 7.58399 52.0662 8.45599 51.8262 9.25599C51.5862 10.056 51.2262 10.752 50.7462 11.344C50.2822 11.92 49.6982 12.368 48.9942 12.688C48.3062 13.008 47.4662 13.168 46.4742 13.168C45.7062 13.168 44.9702 13.048 44.2662 12.808C43.5782 12.552 42.9782 12.136 42.4662 11.56V17.92ZM46.0422 10.792C46.6342 10.792 47.1462 10.688 47.5782 10.48C48.0102 10.256 48.3622 9.95999 48.6342 9.59199C48.9222 9.22399 49.1302 8.79199 49.2582 8.29599C49.4022 7.79999 49.4742 7.26399 49.4742 6.68799C49.4742 6.11199 49.4022 5.57599 49.2582 5.07999C49.1302 4.56799 48.9222 4.12799 48.6342 3.75999C48.3622 3.39199 48.0022 3.10399 47.5542 2.89599C47.1222 2.68799 46.6022 2.58399 45.9942 2.58399C45.4502 2.58399 44.9462 2.69599 44.4822 2.91999C44.0342 3.14399 43.6582 3.43999 43.3542 3.80799C43.0502 4.17599 42.8182 4.61599 42.6582 5.12799C42.5142 5.62399 42.4422 6.13599 42.4422 6.66399C42.4422 7.23999 42.5142 7.78399 42.6582 8.29599C42.8022 8.79199 43.0182 9.22399 43.3062 9.59199C43.6102 9.94399 43.9862 10.232 44.4342 10.456C44.8822 10.68 45.4182 10.792 46.0422 10.792Z" fill="white"/>
<path d="M63.7944 17.92H61.0584V0.351986H63.6504L63.7944 2.15199C64.2584 1.49599 64.8584 0.999986 65.5944 0.663987C66.3464 0.311986 67.1304 0.135986 67.9464 0.135986C68.8104 0.135986 69.5864 0.295986 70.2744 0.615986C70.9624 0.919986 71.5464 1.35199 72.0264 1.91199C72.5224 2.47199 72.8904 3.15199 73.1304 3.95199C73.3864 4.73599 73.5144 5.63199 73.5144 6.63999C73.5144 7.58399 73.3944 8.45599 73.1544 9.25599C72.9144 10.056 72.5544 10.752 72.0744 11.344C71.6104 11.92 71.0264 12.368 70.3224 12.688C69.6344 13.008 68.7944 13.168 67.8024 13.168C67.0344 13.168 66.2984 13.048 65.5944 12.808C64.9064 12.552 64.3064 12.136 63.7944 11.56V17.92ZM67.3704 10.792C67.9624 10.792 68.4744 10.688 68.9064 10.48C69.3384 10.256 69.6904 9.95999 69.9624 9.59199C70.2504 9.22399 70.4584 8.79199 70.5864 8.29599C70.7304 7.79999 70.8024 7.26399 70.8024 6.68799C70.8024 6.11199 70.7304 5.57599 70.5864 5.07999C70.4584 4.56799 70.2504 4.12799 69.9624 3.75999C69.6904 3.39199 69.3304 3.10399 68.8824 2.89599C68.4504 2.68799 67.9304 2.58399 67.3224 2.58399C66.7784 2.58399 66.2744 2.69599 65.8104 2.91999C65.3624 3.14399 64.9864 3.43999 64.6824 3.80799C64.3784 4.17599 64.1464 4.61599 63.9864 5.12799C63.8424 5.62399 63.7704 6.13599 63.7704 6.66399C63.7704 7.23999 63.8424 7.78399 63.9864 8.29599C64.1304 8.79199 64.3464 9.22399 64.6344 9.59199C64.9384 9.94399 65.3144 10.232 65.7624 10.456C66.2104 10.68 66.7464 10.792 67.3704 10.792Z" fill="white"/>
<path d="M78.1737 7.59999C78.2057 8.06399 78.3017 8.49599 78.4617 8.89599C78.6217 9.29599 78.8377 9.64799 79.1097 9.95199C79.3817 10.24 79.7177 10.472 80.1177 10.648C80.5337 10.824 81.0137 10.912 81.5577 10.912C82.1337 10.912 82.6617 10.808 83.1417 10.6C83.6377 10.392 83.9977 10.032 84.2217 9.51999H87.0297C86.8697 10.16 86.6057 10.712 86.2377 11.176C85.8857 11.64 85.4617 12.024 84.9657 12.328C84.4857 12.616 83.9497 12.832 83.3577 12.976C82.7817 13.104 82.1657 13.168 81.5097 13.168C80.5017 13.168 79.6137 13.016 78.8457 12.712C78.0937 12.408 77.4617 11.968 76.9497 11.392C76.4377 10.816 76.0537 10.136 75.7977 9.35199C75.5577 8.55199 75.4377 7.65599 75.4377 6.66399C75.4377 5.70399 75.5737 4.83199 75.8457 4.04799C76.1177 3.24799 76.5097 2.55999 77.0217 1.98399C77.5497 1.40799 78.1817 0.959986 78.9177 0.639986C79.6537 0.303986 80.4937 0.135986 81.4377 0.135986C82.4297 0.135986 83.2857 0.303986 84.0057 0.639986C84.7257 0.959986 85.3257 1.39999 85.8057 1.95999C86.3017 2.51999 86.6697 3.17599 86.9097 3.92799C87.1497 4.67999 87.2697 5.49599 87.2697 6.37599C87.2697 6.79199 87.2457 7.19999 87.1977 7.59999H78.1737ZM84.6057 5.53599C84.5577 4.54399 84.2457 3.79199 83.6697 3.27999C83.1097 2.76799 82.3737 2.51199 81.4617 2.51199C80.9497 2.51199 80.5017 2.59199 80.1177 2.75199C79.7337 2.91199 79.4057 3.12799 79.1337 3.39999C78.8777 3.67199 78.6697 3.99199 78.5097 4.35999C78.3497 4.72799 78.2457 5.11999 78.1977 5.53599H84.6057Z" fill="white"/>
<path d="M90.8566 4.50399C90.8886 3.97599 90.9126 3.35199 90.9286 2.63199C90.9446 1.89599 90.9526 1.13599 90.9526 0.351986H100.697V10.672H102.353V16.696H99.6886V13H91.0486V16.696H88.3846V10.672C88.8486 10.672 89.2326 10.528 89.5366 10.24C89.8566 9.93599 90.0726 9.61599 90.1846 9.27999C90.2966 8.99199 90.3926 8.63199 90.4726 8.19999C90.5526 7.75199 90.6166 7.31199 90.6646 6.87999C90.7126 6.44799 90.7526 6.04799 90.7846 5.67999C90.8166 5.31199 90.8406 4.91999 90.8566 4.50399ZM97.9606 2.72799H93.4486C93.4166 3.30399 93.3926 3.92799 93.3766 4.59999C93.3606 5.27199 93.3366 5.91999 93.3046 6.54399C93.2886 6.89599 93.2646 7.23999 93.2326 7.57599C93.2006 7.89599 93.1526 8.23999 93.0886 8.60799C93.0246 8.95999 92.9366 9.31199 92.8246 9.66399C92.7126 10.016 92.5606 10.352 92.3686 10.672H97.9606V2.72799Z" fill="white"/>
<path d="M103.702 0.351986H106.438V2.84799C106.438 3.48799 106.462 4.02399 106.51 4.45599C106.574 4.88799 106.702 5.24799 106.894 5.53599C107.086 5.80799 107.366 6.00799 107.734 6.13599C108.102 6.24799 108.598 6.30399 109.222 6.30399C109.622 6.30399 110.054 6.28799 110.518 6.25599C110.982 6.20799 111.366 6.15999 111.67 6.11199V0.351986H114.382V13H111.67V8.48799C111.318 8.53599 110.942 8.57599 110.542 8.60799C110.142 8.63999 109.822 8.66399 109.582 8.67999C109.358 8.67999 108.99 8.67999 108.478 8.67999C107.71 8.66399 107.03 8.56799 106.438 8.39199C105.846 8.19999 105.342 7.91199 104.926 7.52799C104.526 7.12799 104.222 6.59999 104.014 5.94399C103.806 5.28799 103.702 4.47999 103.702 3.51999V0.351986Z" fill="white"/>
<path d="M119.635 7.59999C119.667 8.06399 119.763 8.49599 119.923 8.89599C120.083 9.29599 120.299 9.64799 120.571 9.95199C120.843 10.24 121.179 10.472 121.579 10.648C121.995 10.824 122.475 10.912 123.019 10.912C123.595 10.912 124.123 10.808 124.603 10.6C125.099 10.392 125.459 10.032 125.683 9.51999H128.491C128.331 10.16 128.067 10.712 127.699 11.176C127.347 11.64 126.923 12.024 126.427 12.328C125.947 12.616 125.411 12.832 124.819 12.976C124.243 13.104 123.627 13.168 122.971 13.168C121.963 13.168 121.075 13.016 120.307 12.712C119.555 12.408 118.923 11.968 118.411 11.392C117.899 10.816 117.515 10.136 117.259 9.35199C117.019 8.55199 116.899 7.65599 116.899 6.66399C116.899 5.70399 117.035 4.83199 117.307 4.04799C117.579 3.24799 117.971 2.55999 118.483 1.98399C119.011 1.40799 119.643 0.959986 120.379 0.639986C121.115 0.303986 121.955 0.135986 122.899 0.135986C123.891 0.135986 124.747 0.303986 125.467 0.639986C126.187 0.959986 126.787 1.39999 127.267 1.95999C127.763 2.51999 128.131 3.17599 128.371 3.92799C128.611 4.67999 128.731 5.49599 128.731 6.37599C128.731 6.79199 128.707 7.19999 128.659 7.59999H119.635ZM126.067 5.53599C126.019 4.54399 125.707 3.79199 125.131 3.27999C124.571 2.76799 123.835 2.51199 122.923 2.51199C122.411 2.51199 121.963 2.59199 121.579 2.75199C121.195 2.91199 120.867 3.12799 120.595 3.39999C120.339 3.67199 120.131 3.99199 119.971 4.35999C119.811 4.72799 119.707 5.11999 119.659 5.53599H126.067Z" fill="white"/>
<path d="M131.207 13V0.351986H133.943V5.55999H139.559V0.351986H142.295V13H139.559V7.93599H133.943V13H131.207Z" fill="white"/>
<path d="M145.269 13V0.351986H147.981V5.51199H149.925L153.165 0.351986H156.285L152.277 6.37599L156.597 13H153.429L150.093 7.88799H147.981V13H145.269Z" fill="white"/>
<path d="M163.59 0.135986C164.598 0.135986 165.486 0.295986 166.254 0.615986C167.022 0.935986 167.67 1.38399 168.198 1.95999C168.742 2.51999 169.15 3.19999 169.422 3.99999C169.694 4.79999 169.83 5.68799 169.83 6.66399C169.83 7.65599 169.694 8.55199 169.422 9.35199C169.166 10.136 168.774 10.816 168.246 11.392C167.718 11.968 167.062 12.408 166.278 12.712C165.51 13.016 164.614 13.168 163.59 13.168C162.582 13.168 161.694 13.016 160.926 12.712C160.158 12.392 159.51 11.952 158.982 11.392C158.47 10.816 158.078 10.128 157.806 9.32799C157.55 8.52799 157.422 7.63999 157.422 6.66399C157.422 5.68799 157.55 4.79999 157.806 3.99999C158.078 3.19999 158.478 2.51999 159.006 1.95999C159.534 1.38399 160.182 0.935986 160.95 0.615986C161.718 0.295986 162.598 0.135986 163.59 0.135986ZM163.59 10.792C164.214 10.792 164.742 10.688 165.174 10.48C165.622 10.256 165.982 9.95999 166.254 9.59199C166.542 9.22399 166.75 8.79199 166.878 8.29599C167.022 7.79999 167.094 7.26399 167.094 6.68799C167.094 6.11199 167.022 5.57599 166.878 5.07999C166.75 4.56799 166.542 4.12799 166.254 3.75999C165.982 3.39199 165.622 3.10399 165.174 2.89599C164.742 2.68799 164.214 2.58399 163.59 2.58399C163.014 2.58399 162.494 2.68799 162.03 2.89599C161.582 3.10399 161.214 3.39199 160.926 3.75999C160.654 4.12799 160.446 4.56799 160.302 5.07999C160.174 5.57599 160.11 6.11199 160.11 6.68799C160.11 7.26399 160.174 7.79999 160.302 8.29599C160.446 8.79199 160.654 9.22399 160.926 9.59199C161.214 9.95999 161.574 10.256 162.006 10.48C162.454 10.688 162.982 10.792 163.59 10.792Z" fill="white"/>
</svg>
