<svg width="131" height="49" viewBox="0 0 131 49" fill="none" xmlns="http://www.w3.org/2000/svg">
<g clip-path="url(#clip0_15_1236)">
<path d="M0.338407 26.1091C2.94107 19.138 5.89076 12.0853 12.2494 7.7169C17.9345 3.81801 25.0382 2.5626 31.8153 3.10355C39.1947 3.69553 46.2474 6.7677 52.2386 11.034C55.321 13.2284 58.1686 15.7188 60.8121 18.4236C62.1185 19.7708 63.3841 21.1691 64.5987 22.598C65.8133 24.0269 67.0483 25.4763 67.7015 27.2522C68.2527 28.773 68.1812 30.5489 67.2626 31.9064C66.293 33.3455 64.5273 33.7946 62.8738 33.6823C59.1382 33.4271 55.5047 30.9265 52.8816 28.3851C47.7988 23.4758 44.2163 15.1473 47.6967 8.34971C51.1771 1.55216 59.6179 -0.438113 66.7625 0.215105C73.9071 0.868323 81.7763 3.61388 88.4922 6.86976C101.24 13.0447 112.396 22.5164 120.265 34.3253C121.245 35.7849 122.153 37.2852 123.011 38.8162C124.001 40.5717 119.734 40.1124 119.03 38.9081C112.794 28.1912 104.169 19.0666 93.6465 12.4629C88.4514 9.20706 82.8582 6.55336 77.0099 4.72639C70.7022 2.74632 63.4862 1.11328 57.3113 4.35895C54.5351 5.81849 52.2284 8.19661 51.2486 11.2177C50.2687 14.2389 50.5851 17.7907 51.7487 20.8629C52.9122 23.9351 54.8617 26.5479 57.2908 28.6199C58.3319 29.5078 59.4852 30.3142 60.7202 30.9163C61.2918 31.1919 61.8123 31.4675 62.4145 31.1613C63.129 30.8041 63.5066 30.008 63.6801 29.2629C64.3844 26.1805 61.2306 23.3431 59.373 21.2712C57.1377 18.7808 54.7392 16.4333 52.157 14.3001C47.4211 10.391 41.8688 7.14533 35.7857 5.92055C29.4066 4.63453 22.4764 5.59395 16.8832 8.9621C10.1877 12.9835 7.16657 20.2301 4.52308 27.2114C3.97193 28.6607 -0.151507 27.4461 0.348613 26.0887H0.338407V26.1091Z" fill="white"/>
<path d="M0.338407 26.1091C2.94107 19.138 5.89076 12.0853 12.2494 7.7169C17.9345 3.81801 25.0382 2.5626 31.8153 3.10355C39.1947 3.69553 46.2474 6.7677 52.2386 11.034C55.321 13.2284 58.1686 15.7188 60.8121 18.4236C62.1185 19.7708 63.3841 21.1691 64.5987 22.598C65.8133 24.0269 67.0483 25.4763 67.7015 27.2522C68.2527 28.773 68.1812 30.5489 67.2626 31.9064C66.293 33.3455 64.5273 33.7946 62.8738 33.6823C59.1382 33.4271 55.5047 30.9265 52.8816 28.3851C47.7988 23.4758 44.2163 15.1473 47.6967 8.34971C51.1771 1.55216 59.6179 -0.438113 66.7625 0.215105C73.9071 0.868323 81.7763 3.61388 88.4922 6.86976C101.24 13.0447 112.396 22.5164 120.265 34.3253C121.245 35.7849 122.153 37.2852 123.011 38.8162C124.001 40.5717 119.734 40.1124 119.03 38.9081C112.794 28.1912 104.169 19.0666 93.6465 12.4629C88.4514 9.20706 82.8582 6.55336 77.0099 4.72639C70.7022 2.74632 63.4862 1.11328 57.3113 4.35895C54.5351 5.81849 52.2284 8.19661 51.2486 11.2177C50.2687 14.2389 50.5851 17.7907 51.7487 20.8629C52.9122 23.9351 54.8617 26.5479 57.2908 28.6199C58.3319 29.5078 59.4852 30.3142 60.7202 30.9163C61.2918 31.1919 61.8123 31.4675 62.4145 31.1613C63.129 30.8041 63.5066 30.008 63.6801 29.2629C64.3844 26.1805 61.2306 23.3431 59.373 21.2712C57.1377 18.7808 54.7392 16.4333 52.157 14.3001C47.4211 10.391 41.8688 7.14533 35.7857 5.92055C29.4066 4.63453 22.4764 5.59395 16.8832 8.9621C10.1877 12.9835 7.16657 20.2301 4.52308 27.2114C3.97193 28.6607 -0.151507 27.4461 0.348613 26.0887H0.338407V26.1091Z" fill="url(#paint0_linear_15_1236)"/>
<path d="M108.885 32.9783L118.929 40.3168L123.766 43.8483C125.114 44.8281 126.543 46.2162 128.216 46.5632L125.93 46.7979C126.93 45.2874 126.645 43.1746 126.532 41.4701C126.4 39.5411 126.185 37.6121 125.981 35.683C125.573 31.8148 125.063 27.7321 125.757 23.8639C126.022 22.4043 130.013 23.476 129.931 24.9866C129.696 29.2325 129.992 33.3457 130.442 37.561C130.656 39.633 130.88 41.7049 130.942 43.7972C130.993 45.5017 130.901 47.0327 129.941 48.4922C129.533 49.1046 128.206 48.8392 127.655 48.727C125.583 48.2983 123.869 47.1552 122.184 45.9202C120.327 44.5627 118.469 43.2052 116.601 41.8478L105.446 33.6928C104.68 33.1314 105.068 32.3659 105.854 32.172C106.905 31.9168 108.059 32.3761 108.896 32.9885L108.885 32.9783Z" fill="white"/>
<path d="M108.885 32.9783L118.929 40.3168L123.766 43.8483C125.114 44.8281 126.543 46.2162 128.216 46.5632L125.93 46.7979C126.93 45.2874 126.645 43.1746 126.532 41.4701C126.4 39.5411 126.185 37.6121 125.981 35.683C125.573 31.8148 125.063 27.7321 125.757 23.8639C126.022 22.4043 130.013 23.476 129.931 24.9866C129.696 29.2325 129.992 33.3457 130.442 37.561C130.656 39.633 130.88 41.7049 130.942 43.7972C130.993 45.5017 130.901 47.0327 129.941 48.4922C129.533 49.1046 128.206 48.8392 127.655 48.727C125.583 48.2983 123.869 47.1552 122.184 45.9202C120.327 44.5627 118.469 43.2052 116.601 41.8478L105.446 33.6928C104.68 33.1314 105.068 32.3659 105.854 32.172C106.905 31.9168 108.059 32.3761 108.896 32.9885L108.885 32.9783Z" fill="url(#paint1_linear_15_1236)"/>
</g>
<defs>
<linearGradient id="paint0_linear_15_1236" x1="61.7328" y1="39.9763" x2="61.7328" y2="0.097847" gradientUnits="userSpaceOnUse">
<stop stop-color="#F6FD7B"/>
<stop offset="1" stop-color="#D8FC7D"/>
</linearGradient>
<linearGradient id="paint1_linear_15_1236" x1="117.992" y1="48.8815" x2="117.992" y2="23.1706" gradientUnits="userSpaceOnUse">
<stop stop-color="#F6FD7B"/>
<stop offset="1" stop-color="#D8FC7D"/>
</linearGradient>
<clipPath id="clip0_15_1236">
<rect width="130.654" height="48.7668" fill="white" transform="matrix(1 0 0 -1 0.298828 48.8698)"/>
</clipPath>
</defs>
</svg>
